<svg width="157" height="161" viewBox="0 0 157 161" fill="none" xmlns="http://www.w3.org/2000/svg">
<path fill-rule="evenodd" clip-rule="evenodd" d="M108.97 8.83476C89.8648 -2.1456 66.3259 -2.1456 47.2205 8.83476L31.2272 18.0265C12.1217 29.0069 0.352295 49.2994 0.352295 71.2602V89.6437C0.352295 111.604 12.1217 131.897 31.2272 142.877L47.2205 152.069C66.3259 163.049 89.8648 163.049 108.97 152.069L124.964 142.877C144.069 131.897 155.838 111.604 155.838 89.6437V71.2602C155.838 49.2994 144.069 29.0069 124.964 18.0265L108.97 8.83476ZM58.1175 27.6231C70.4798 20.5182 85.7109 20.5182 98.0732 27.6231L114.067 36.8149C126.429 43.9198 134.044 57.0503 134.044 71.2602V89.6437C134.044 103.854 126.429 116.984 114.067 124.089L98.0732 133.281C85.7109 140.386 70.4798 140.386 58.1175 133.281L42.1242 124.089C29.7618 116.984 22.1463 103.854 22.1463 89.6437V71.2602C22.1463 57.0503 29.7618 43.9198 42.1242 36.8149L58.1175 27.6231Z" fill="#14142B"/>
<path d="M77.7717 38.7397C68.694 38.2615 68.6938 38.2655 68.6936 38.2695L68.6931 38.278L68.6922 38.2964L68.6902 38.3384C68.6889 38.3688 68.6874 38.4038 68.6859 38.4435C68.6829 38.5228 68.6798 38.6205 68.6772 38.7357C68.6719 38.9659 68.6687 39.2669 68.6723 39.6311C68.6796 40.3578 68.7145 41.3452 68.8184 42.5306C69.0245 44.8823 69.5111 48.1199 70.6527 51.6961C72.9497 58.8925 78.0841 67.8965 89.127 73.1406C94.3201 75.6067 96.8197 79.7299 98.0975 83.7331C98.7434 85.7566 99.0295 87.6369 99.1492 89.0032C99.2082 89.6767 99.2245 90.1983 99.2277 90.5158C99.2293 90.6738 99.2276 90.7787 99.2266 90.8239C99.2261 90.8464 99.2257 90.8537 99.226 90.8451L99.2271 90.82L99.2281 90.7981L99.2288 90.7848L99.2292 90.7776C99.2294 90.7738 99.2296 90.77 108.307 91.2482C117.385 91.7263 117.385 91.7224 117.385 91.7183L117.386 91.7098L117.387 91.6915L117.389 91.6494C117.39 91.6191 117.392 91.584 117.393 91.5444C117.396 91.4651 117.399 91.3674 117.402 91.2522C117.407 91.0219 117.41 90.7209 117.407 90.3568C117.399 89.63 117.364 88.6426 117.261 87.4572C117.054 85.1055 116.568 81.8679 115.426 78.2917C113.129 71.0953 107.995 62.0913 96.952 56.8472C91.7589 54.3811 89.2593 50.258 87.9815 46.2548C87.3356 44.2312 87.0495 42.3509 86.9297 40.9847C86.8707 40.3111 86.8544 39.7895 86.8513 39.472C86.8497 39.314 86.8514 39.2091 86.8524 39.164C86.8529 39.1414 86.8532 39.1341 86.8529 39.1427L86.8518 39.1679L86.8508 39.1897L86.8502 39.203L86.8498 39.2102C86.8496 39.214 86.8494 39.2179 77.7717 38.7397Z" fill="#14142B"/>
<path d="M48.0842 69.0555C39.0065 68.5773 39.0063 68.5813 39.0061 68.5853L39.0056 68.5938L39.0047 68.6122L39.0027 68.6542C39.0014 68.6846 38.9999 68.7196 38.9984 68.7593C38.9954 68.8386 38.9923 68.9363 38.9897 69.0515C38.9844 69.2817 38.9812 69.5827 38.9848 69.9469C38.9921 70.6736 39.027 71.661 39.1309 72.8464C39.337 75.1981 39.8236 78.4357 40.9652 82.0119C43.2622 89.2083 48.3966 98.2123 59.4395 103.456C64.6326 105.923 67.1322 110.046 68.41 114.049C69.0559 116.072 69.342 117.953 69.4617 119.319C69.5207 119.993 69.537 120.514 69.5402 120.832C69.5418 120.99 69.5401 121.095 69.5391 121.14C69.5386 121.162 69.5382 121.17 69.5385 121.161L69.5396 121.136L69.5406 121.114L69.5413 121.101L69.5417 121.093C69.5419 121.09 69.5421 121.086 78.6198 121.564C87.6975 122.042 87.6977 122.038 87.6979 122.034L87.6983 122.026L87.6992 122.007L87.7012 121.965C87.7026 121.935 87.7041 121.9 87.7055 121.86C87.7086 121.781 87.7117 121.683 87.7143 121.568C87.7195 121.338 87.7228 121.037 87.7191 120.673C87.7118 119.946 87.6769 118.958 87.573 117.773C87.3669 115.421 86.8803 112.184 85.7388 108.607C83.4417 101.411 78.3074 92.4071 67.2645 87.163C62.0714 84.6969 59.5718 80.5738 58.294 76.5706C57.6481 74.547 57.362 72.6667 57.2422 71.3005C57.1832 70.6269 57.1669 70.1053 57.1638 69.7878C57.1622 69.6298 57.1639 69.5249 57.1649 69.4798L57.1655 69.455L57.1654 69.4585L57.1643 69.4837L57.1633 69.5055L57.1627 69.5188L57.1623 69.526C57.1621 69.5298 57.1619 69.5337 48.0842 69.0555Z" fill="#14142B"/>
</svg>
